<?xml version="1.0" standalone="no"?>
<!DOCTYPE svg PUBLIC "-//W3C//DTD SVG 1.1//EN" "http://www.w3.org/Graphics/SVG/1.1/DTD/svg11.dtd">
<svg width="20mm" height="20mm" viewBox="-10 -10 20 20" xmlns="http://www.w3.org/2000/svg" version="1.1">
<title>OpenSCAD Model</title>
<path d="
M -9.99998,8.98398 L -9.99129,9.11659 L -9.96536,9.24695 L -9.92264,9.37278 L -9.86386,9.49198 L -9.79002,9.60247
 L -9.70239,9.70239 L -9.60247,9.79002 L -9.49198,9.86386 L -9.37278,9.92264 L -9.24695,9.96536 L -9.11659,9.99129
 L -8.98398,9.99998 L -2.88417,9.99998 L -2.81843,9.99132 L -2.75717,9.96594 L -2.70457,9.92558 L -2.66421,9.87298
 L -2.63883,9.81172 L -2.63017,9.74598 L -2.63017,8.75398 L -2.63883,8.68825 L -2.66421,8.62698 L -2.70457,8.57438
 L -2.75717,8.53402 L -2.81843,8.50864 L -2.88417,8.49998 L -5.74098,8.49998 L -5.80672,8.49132 L -5.86798,8.46595
 L -5.92059,8.42559 L -5.96095,8.37298 L -5.98632,8.31172 L -5.99498,8.24598 L -5.99498,6.99999 L -2.65499,3.65999
 L 2.65514,3.66014 L 5.99498,6.99999 L 5.99498,8.24598 L 5.98632,8.31172 L 5.96095,8.37298 L 5.92059,8.42559
 L 5.86798,8.46595 L 5.80672,8.49132 L 5.74098,8.49998 L 2.88417,8.49998 L 2.81843,8.50864 L 2.75717,8.53402
 L 2.70457,8.57438 L 2.66421,8.62698 L 2.63883,8.68825 L 2.63017,8.75398 L 2.63017,9.74598 L 2.63883,9.81172
 L 2.66421,9.87298 L 2.70457,9.92558 L 2.75717,9.96594 L 2.81843,9.99132 L 2.88417,9.99998 L 8.98398,9.99998
 L 9.11659,9.99129 L 9.24695,9.96536 L 9.37278,9.92264 L 9.49198,9.86386 L 9.60247,9.79002 L 9.70239,9.70239
 L 9.79002,9.60247 L 9.86386,9.49198 L 9.92264,9.37278 L 9.96536,9.24695 L 9.99129,9.11659 L 9.99998,8.98398
 L 9.99998,2.88417 L 9.99132,2.81843 L 9.96594,2.75717 L 9.92558,2.70457 L 9.87298,2.66421 L 9.81172,2.63883
 L 9.74598,2.63017 L 8.75398,2.63017 L 8.68825,2.63883 L 8.62698,2.66421 L 8.57438,2.70457 L 8.53402,2.75717
 L 8.50864,2.81843 L 8.49998,2.88417 L 8.49998,5.74098 L 8.49132,5.80672 L 8.46595,5.86798 L 8.42559,5.92059
 L 8.37298,5.96095 L 8.31172,5.98632 L 8.24598,5.99498 L 6.99999,5.99498 L 3.65999,2.65499 L 3.66014,-2.65514
 L 6.99999,-5.99498 L 8.24598,-5.99498 L 8.31172,-5.98632 L 8.37298,-5.96095 L 8.42559,-5.92059 L 8.46595,-5.86798
 L 8.49132,-5.80672 L 8.49998,-5.74098 L 8.49998,-2.88417 L 8.50864,-2.81843 L 8.53402,-2.75717 L 8.57438,-2.70457
 L 8.62698,-2.66421 L 8.68825,-2.63883 L 8.75398,-2.63017 L 9.74598,-2.63017 L 9.81172,-2.63883 L 9.87298,-2.66421
 L 9.92558,-2.70457 L 9.96594,-2.75717 L 9.99132,-2.81843 L 9.99998,-2.88417 L 9.99998,-8.98398 L 9.99129,-9.11659
 L 9.96536,-9.24695 L 9.92264,-9.37278 L 9.86386,-9.49198 L 9.79002,-9.60247 L 9.70239,-9.70239 L 9.60247,-9.79002
 L 9.49198,-9.86386 L 9.37278,-9.92264 L 9.24695,-9.96536 L 9.11659,-9.99129 L 8.98398,-9.99998 L 2.88417,-9.99998
 L 2.81843,-9.99132 L 2.75717,-9.96594 L 2.70457,-9.92558 L 2.66421,-9.87298 L 2.63883,-9.81172 L 2.63017,-9.74598
 L 2.63017,-8.75398 L 2.63883,-8.68825 L 2.66421,-8.62698 L 2.70457,-8.57438 L 2.75717,-8.53402 L 2.81843,-8.50864
 L 2.88417,-8.49998 L 5.74098,-8.49998 L 5.80672,-8.49132 L 5.86798,-8.46595 L 5.92059,-8.42559 L 5.96095,-8.37298
 L 5.98632,-8.31172 L 5.99498,-8.24598 L 5.99498,-6.99999 L 2.65499,-3.65999 L -2.65514,-3.66014 L -5.99498,-6.99999
 L -5.99498,-8.24598 L -5.98632,-8.31172 L -5.96095,-8.37298 L -5.92059,-8.42559 L -5.86798,-8.46595 L -5.80672,-8.49132
 L -5.74098,-8.49998 L -2.88417,-8.49998 L -2.81843,-8.50864 L -2.75717,-8.53402 L -2.70457,-8.57438 L -2.66421,-8.62698
 L -2.63883,-8.68825 L -2.63017,-8.75398 L -2.63017,-9.74598 L -2.63883,-9.81172 L -2.66421,-9.87298 L -2.70457,-9.92558
 L -2.75717,-9.96594 L -2.81843,-9.99132 L -2.88417,-9.99998 L -8.98398,-9.99998 L -9.11659,-9.99129 L -9.24695,-9.96536
 L -9.37278,-9.92264 L -9.49198,-9.86386 L -9.60247,-9.79002 L -9.70239,-9.70239 L -9.79002,-9.60247 L -9.86386,-9.49198
 L -9.92264,-9.37278 L -9.96536,-9.24695 L -9.99129,-9.11659 L -9.99998,-8.98398 L -9.99998,-2.88417 L -9.99132,-2.81843
 L -9.96594,-2.75717 L -9.92558,-2.70457 L -9.87298,-2.66421 L -9.81172,-2.63883 L -9.74598,-2.63017 L -8.75398,-2.63017
 L -8.68825,-2.63883 L -8.62698,-2.66421 L -8.57438,-2.70457 L -8.53402,-2.75717 L -8.50864,-2.81843 L -8.49998,-2.88417
 L -8.49998,-5.74098 L -8.49132,-5.80672 L -8.46595,-5.86798 L -8.42559,-5.92059 L -8.37298,-5.96095 L -8.31172,-5.98632
 L -8.24598,-5.99498 L -6.99999,-5.99498 L -3.65999,-2.65499 L -3.66014,2.65514 L -6.99999,5.99498 L -8.24598,5.99498
 L -8.31172,5.98632 L -8.37298,5.96095 L -8.42559,5.92059 L -8.46595,5.86798 L -8.49132,5.80672 L -8.49998,5.74098
 L -8.49998,2.88417 L -8.50864,2.81843 L -8.53402,2.75717 L -8.57438,2.70457 L -8.62698,2.66421 L -8.68825,2.63883
 L -8.75398,2.63017 L -9.74598,2.63017 L -9.81172,2.63883 L -9.87298,2.66421 L -9.92558,2.70457 L -9.96594,2.75717
 L -9.99132,2.81843 L -9.99998,2.88417 z
M -2.0955,-0 L -2.08541,-0.205395 L -2.05524,-0.408813 L -2.00527,-0.608292 L -1.93599,-0.801913 L -1.84807,-0.987811
 L -1.74234,-1.1642 L -1.61984,-1.32937 L -1.48174,-1.48174 L -1.32937,-1.61984 L -1.1642,-1.74234 L -0.987811,-1.84807
 L -0.801913,-1.93599 L -0.608292,-2.00527 L -0.408813,-2.05524 L -0.205395,-2.08541 L 0,-2.0955 L 0.205395,-2.08541
 L 0.408813,-2.05524 L 0.608292,-2.00527 L 0.801913,-1.93599 L 0.987811,-1.84807 L 1.1642,-1.74234 L 1.32937,-1.61984
 L 1.48174,-1.48174 L 1.61984,-1.32937 L 1.74234,-1.1642 L 1.84807,-0.987811 L 1.93599,-0.801913 L 2.00527,-0.608292
 L 2.05524,-0.408813 L 2.08541,-0.205395 L 2.0955,-0 L 2.08541,0.205395 L 2.05524,0.408813 L 2.00527,0.608292
 L 1.93599,0.801913 L 1.84807,0.987811 L 1.74234,1.1642 L 1.61984,1.32937 L 1.48174,1.48174 L 1.32937,1.61984
 L 1.1642,1.74234 L 0.987811,1.84807 L 0.801913,1.93599 L 0.608292,2.00527 L 0.408813,2.05524 L 0.205395,2.08541
 L 0,2.0955 L -0.205395,2.08541 L -0.408813,2.05524 L -0.608292,2.00527 L -0.801913,1.93599 L -0.987811,1.84807
 L -1.1642,1.74234 L -1.32937,1.61984 L -1.48174,1.48174 L -1.61984,1.32937 L -1.74234,1.1642 L -1.84807,0.987811
 L -1.93599,0.801913 L -2.00527,0.608292 L -2.05524,0.408813 L -2.08541,0.205395 z
" stroke="black" fill="lightgray" stroke-width="0.5"/>
</svg>
